PathFileType	4	(X/Y/Z)	Patient4_TMGait_0pt7_02_left_11.trc.trc
DataRate	CameraRate	NumFrames	NumMarkers	Units	OrigDataRate	OrigDataStartFrame	OrigNumFrames
85.889570552147	85.889570552147	4	33	mm	85.889570552147	18	       141
Frame#	Time	Sacral			L.Shoulder			Chest			R.Shoulder			Neck			R.ASIS			L.ASIS			R.Thigh.Superior			R.Thigh.Lateral			R.Thigh.Inferior			R.Patella			L.Thigh.Superior			L.Thigh.Lateral			L.Thigh.Inferior			L.Patella			L.Shank.Superior			L.Shank.Lateral			L.Shank.Inferior			R.Shank.Superior			R.Shank.Lateral			R.Shank.Inferior			R.Heel			R.Midfoot.Superior			R.Midfoot.Lateral			R.Toe			L.Heel			L.Midfoot.Lateral			L.Midfoot.Superior			L.Toe			L.Elbow			L.Wrist			R.Elbow			R.Wrist			
		X1	Y1	Z1	X2	Y2	Z2	X3	Y3	Z3	X4	Y4	Z4	X5	Y5	Z5	X6	Y6	Z6	X7	Y7	Z7	X8	Y8	Z8	X9	Y9	Z9	X10	Y10	Z10	X11	Y11	Z11	X12	Y12	Z12	X13	Y13	Z13	X14	Y14	Z14	X15	Y15	Z15	X16	Y16	Z16	X17	Y17	Z17	X18	Y18	Z18	X19	Y19	Z19	X20	Y20	Z20	X21	Y21	Z21	X22	Y22	Z22	X23	Y23	Z23	X24	Y24	Z24	X25	Y25	Z25	X26	Y26	Z26	X27	Y27	Z27	X28	Y28	Z28	X29	Y29	Z29	X30	Y30	Z30	X31	Y31	Z31	X32	Y32	Z32	X33	Y33	Z33	

18	12.417928571429	745.618697149860	1002.897878784258	523.651621676642	914.422781462978	1430.432698062772	333.736676155180	1032.494206957899	1353.664015821881	480.810056637723	972.224908610787	1428.440106624569	663.504288612576	936.472204100848	1486.960292606531	489.545795987480	976.713949079235	940.841076780382	627.300110057914	947.650934398627	952.153744124091	351.130855419859	981.531727043057	729.913897297825	602.254154355962	880.017660594639	632.545989714126	662.317521588438	943.479593905046	569.563919417910	582.715805190192	927.194434905953	483.929846000691	586.750639455527	1030.517888830187	783.741357385011	381.418663931863	996.722516396027	653.628445171493	295.622502775258	1106.088635192920	603.292134092890	355.521649468272	1140.468458704708	539.626106166082	348.804456008584	1125.668980820812	464.795111947271	339.384144863001	1062.899723745873	333.922009799703	284.827630110101	1152.154354970716	235.707293169485	338.247392166642	892.058823440886	398.158972088040	592.640132537900	811.117428715919	300.151604192576	652.822214754074	845.736030680018	203.267881520593	587.376121193670	702.003798487008	42.471013741549	552.054677746707	873.023324964222	96.746016737667	591.016228918633	784.051991114366	36.588990688091	627.983173753480	992.279615541111	44.662467487635	620.239269116632	1073.828312354039	52.461831138438	372.864580504051	1149.539753408438	59.158422581252	294.471693187183	1216.991905528707	139.625939507216	316.077129153303	1352.236840009455	115.340577266486	293.082990176775	746.099421231688	1127.063544590860	230.406269169113	662.431618911029	883.238245971060	222.291492972818	1102.422943607886	1103.522880938438	760.115429924784	1347.900569385038	1070.338854743460	684.958199974515	
19	12.429571428571	746.835152848949	1001.629155975647	521.891071041828	913.645760840925	1429.592457542268	332.123614821914	1032.064453019126	1353.442495390991	479.229422490526	971.270800624259	1427.998426852360	661.736787192318	935.387712691395	1486.083358240612	487.923538395561	977.676815518636	939.817782010732	626.067573835687	949.339550558215	951.031776581502	349.820611812061	980.831633621494	728.304441199767	601.027173622678	878.336903055927	631.755251232103	661.288309107874	940.865439546557	568.189156652519	581.489729097394	923.724953031635	482.496008640229	585.447336117945	1031.066510103910	780.503088141557	380.694218021226	995.025505225646	650.156591967184	295.834891655251	1103.745296897485	598.885066377990	355.725674569616	1137.250935258399	535.672678339668	349.675520889669	1123.150049792508	461.385657464710	340.167703701536	1061.620281239799	329.529949065383	286.897061468338	1152.529525283117	232.756521493848	340.193224809517	887.729890320288	396.980114490428	591.644867329070	805.962169189016	299.892229803377	652.289034616211	839.070308748570	202.601316586996	586.827838487699	693.831001865315	42.492237427816	552.053248226868	864.792609561288	96.471559982816	590.695988886700	775.837056338663	36.607816828400	628.040854467261	984.102736561059	44.322333444287	620.269956701024	1076.531507569548	49.420257259572	376.225568743439	1151.872299157219	55.937975102145	297.496364104505	1218.981986637423	136.726300587958	318.344766168441	1354.236461484050	112.871087355614	295.082285255676	741.387475683920	1129.368701885045	229.211098381403	655.776159796100	885.955435009360	222.518418116585	1106.681867401783	1105.817804371597	756.827081449921	1352.159710120147	1087.096881412150	678.666874972619	
20	12.441214285714	748.206653838025	1000.233908218688	519.924738482113	912.858996135404	1428.619495110221	330.353544001659	1031.692535563535	1353.190344711580	477.490399802095	970.329151159041	1427.491098311264	659.822560504889	934.258713137298	1485.102215549500	486.137443069339	978.823197720724	938.606881775575	624.628545942335	951.221464836470	949.843175985807	348.395446368171	980.472830891092	726.575112469680	599.592904703913	877.126284126838	630.782365660854	660.105059577240	938.799632127257	566.651586613996	580.132846521839	920.796603262086	480.823796649692	584.023047977607	1031.987904593623	777.236792756192	379.862733222594	993.625334359059	646.652132629864	296.190316930267	1101.710651401124	594.518144357006	356.074931576125	1134.136455190334	531.367748726583	350.691266763426	1120.342296881574	457.507198630617	341.101572065416	1059.129183468972	325.098701417490	289.358624611897	1151.076142203283	229.255282147925	342.507792766774	883.805585424962	395.589955813044	590.536492766492	801.098450042606	299.554548232310	651.658449352736	832.552447695776	201.822119343428	586.233782649101	685.676613877300	42.508282485671	552.046560584010	856.587758251723	96.224066281358	590.396430164836	767.637924510401	36.604394316602	628.070462493846	975.933076774220	43.941938698391	620.310430362162	1076.168307883450	46.604706611661	380.109915178691	1150.938950987971	52.596085055098	300.843107286538	1218.381167708991	133.001240146997	321.006616433935	1353.346062413032	108.515939397237	297.013296103803	737.261591822206	1131.179100999179	228.063932187222	650.254860949611	887.933766905385	222.692101862500	1110.549183305375	1107.988661840207	753.627010844717	1355.130583145614	1103.040716375330	672.761899115426	
21	12.452857142857	749.696016478624	998.724760771473	517.776834760818	912.103863915382	1427.510642827496	328.418881006904	1031.400484869542	1352.882977590421	475.591325511906	969.434214142180	1426.910064003495	657.763463175700	933.128157712536	1484.021694280398	484.176139239564	980.118725904477	937.221997265828	622.995667993844	953.244093418162	948.598213290923	346.860454659442	980.461700335896	724.736855728252	597.989688573312	876.382177444393	629.618144306706	658.758068302228	937.310180302601	564.945486576093	578.656659134062	918.442764515559	478.890954341485	582.477804862683	1033.232584382890	774.002425347218	378.927925949498	992.521457740487	643.198743253495	296.653679284383	1100.015003567492	590.308972020065	356.561552011284	1131.179871635573	526.861987734611	351.877562412390	1117.380789794658	453.310877665393	342.181602389009	1055.750531879768	320.722604190851	292.001756922745	1148.126519494392	225.321854225502	345.067750746452	880.292558362870	393.981175690580	589.298640720316	796.535177609770	299.144130431807	650.917653380387	826.188682899653	200.941410646332	585.585601969432	677.542277314501	42.545964709048	552.033685233765	848.419251269761	96.016458976967	590.125459993990	759.459798726610	36.593140132225	628.070468995121	967.776999411454	43.510218734749	620.367063998110	1073.107722188433	44.053200309748	384.161961541777	1147.232421594002	49.240160552446	304.263483783354	1215.618842751109	128.581271154205	323.969163850231	1350.061076636077	102.466208680368	298.971012497210	733.798736272100	1132.409795732157	226.952857730272	645.877030873610	889.144395436328	222.772885784755	1114.016568690713	1109.975612912639	750.575044646414	1356.927047224079	1118.053587361800	667.262277488987	
